<svg xmlns="http://www.w3.org/2000/svg" width="64" height="64" viewBox="0 0 24 24" fill="none">
  <path d="M12 4.5C7 4.5 2.73 7.61 1 12c1.73 4.39 6 7.5 11 7.5s9.27-3.11 11-7.5c-1.73-4.39-6-7.5-11-7.5z" stroke="#4ade80" stroke-width="1.5" fill="none"/>
  <circle cx="12" cy="12" r="3.5" stroke="#4ade80" stroke-width="1.5" fill="none"/>
  <circle cx="12" cy="12" r="1.5" fill="#4ade80"/>
  <path d="M8.5 12h-1M16.5 12h-1" stroke="#38bdf8" stroke-width="0.7" stroke-linecap="round"/>
  <path d="M12 8.5v-1M12 16.5v-1" stroke="#38bdf8" stroke-width="0.7" stroke-linecap="round"/>
  <path d="M9.9 9.9l-.6-.6M14.7 14.7l-.6-.6" stroke="#38bdf8" stroke-width="0.5" stroke-linecap="round"/>
  <path d="M14.1 9.9l.6-.6M9.3 14.7l.6-.6" stroke="#38bdf8" stroke-width="0.5" stroke-linecap="round"/>
</svg>
